<svg width="25" height="24" viewBox="0 0 25 24" fill="none" xmlns="http://www.w3.org/2000/svg">
<path fill-rule="evenodd" clip-rule="evenodd" d="M12.0083 23.7566C10.4313 23.7566 8.8698 23.4494 7.41288 22.8524C5.95596 22.2555 4.63217 21.3805 3.5171 20.2775C2.40202 19.1745 1.51749 17.8651 0.914013 16.4239C0.310537 14.9828 -6.48499e-05 13.4382 -6.48499e-05 11.8783C-6.48499e-05 10.3184 0.310537 8.77381 0.914013 7.33267C1.51749 5.89153 2.40202 4.58208 3.5171 3.47907C4.63217 2.37607 5.95596 1.50112 7.41288 0.904182C8.8698 0.307241 10.4313 -2.3244e-08 12.0083 0C15.1931 4.69435e-08 18.2474 1.25146 20.4994 3.47907C22.7514 5.70669 24.0166 8.72798 24.0166 11.8783C24.0166 15.0286 22.7514 18.0499 20.4994 20.2775C18.2474 22.5051 15.1931 23.7566 12.0083 23.7566ZM11.0649 16.7708C11.1888 16.8935 11.3359 16.9908 11.4978 17.0572C11.6597 17.1235 11.8332 17.1578 12.0085 17.1578C12.1837 17.1579 12.3573 17.1238 12.5192 17.0575C12.6811 16.9912 12.8283 16.894 12.9523 16.7715C13.0762 16.649 13.1746 16.5035 13.2417 16.3433C13.3088 16.1832 13.3434 16.0116 13.3435 15.8382C13.3436 15.4881 13.2031 15.1523 12.9529 14.9046L11.2277 13.1981H16.011C16.3649 13.1981 16.7043 13.0591 16.9545 12.8115C17.2047 12.564 17.3453 12.2283 17.3453 11.8783C17.3453 11.5283 17.2047 11.1926 16.9545 10.9451C16.7043 10.6975 16.3649 10.5585 16.011 10.5585H11.2264L12.9516 8.85197C13.2018 8.60432 13.3423 8.26851 13.3421 7.9184C13.342 7.56829 13.2013 7.23258 12.9509 6.9851C12.7006 6.73763 12.3611 6.59867 12.0071 6.59879C11.6532 6.59891 11.3138 6.73811 11.0636 6.98576L7.06083 10.9452C6.8107 11.1927 6.67018 11.5283 6.67018 11.8783C6.67018 12.2283 6.8107 12.5639 7.06083 12.8114L11.0636 16.7708H11.0649Z" fill="#C09AF2"/>
</svg>
