<svg width="80" height="65" viewBox="0 0 80 65" fill="none" xmlns="http://www.w3.org/2000/svg">
<rect width="80" height="64.8765" fill="white"/>
<path d="M33.2259 51.5361H55.1355V52.9207H24.8652V2.16211H33.2257L33.2259 51.5361ZM31.8409 51.5361L31.841 3.54625H26.2498V51.5361H31.8409Z" fill="#1C323F"/>
<path d="M2.71589 58.0711V60.8329H7.62178V62.4942H2.16211V61.9404H7.0751V61.3867H2.16211V57.5173H3.82344V60.2862H3.26966V58.0711H2.71589ZM11.7716 57.2972C13.2625 57.2972 14.4765 58.5113 14.4765 60.0093C14.4765 61.5074 13.2625 62.7143 11.7716 62.7143C10.2735 62.7143 9.05947 61.5074 9.05947 60.0093C9.05947 58.5113 10.2735 57.2972 11.7716 57.2972ZM11.7716 62.1676C12.9643 62.1676 13.9299 61.2021 13.9299 60.0093C13.9299 58.8166 12.9643 57.8439 11.7716 57.8439C10.5717 57.8439 9.60614 58.8166 9.60614 60.0093C9.60614 61.2021 10.5717 62.1676 11.7716 62.1676ZM11.7716 58.3906C12.659 58.3906 13.3832 59.1219 13.3832 60.0093C13.3832 60.8968 12.659 61.621 11.7716 61.621C10.8841 61.621 10.1528 60.8968 10.1528 60.0093C10.1528 59.1219 10.8841 58.3906 11.7716 58.3906ZM11.7716 61.0743C12.3608 61.0743 12.8365 60.5986 12.8365 60.0093C12.8365 59.413 12.3608 58.9373 11.7716 58.9373C11.1752 58.9373 10.6995 59.413 10.6995 60.0093C10.6995 60.5986 11.1752 61.0743 11.7716 61.0743ZM21.4236 57.5173V59.1858H18.3707C17.9518 59.2213 17.6324 59.5833 17.6324 60.0093C17.6324 60.4353 17.9518 60.7832 18.3707 60.8329H20.316V61.3867H18.3707C17.6536 61.3299 17.0857 60.7406 17.0857 60.0022C17.0857 59.2923 17.6324 58.6888 18.3423 58.632H20.8698V58.0711H18.3707V58.0782C17.3555 58.135 16.5461 58.9728 16.5461 60.0093C16.5461 61.0388 17.3555 61.8836 18.3707 61.9404H20.8698V60.8329H21.4236V62.4942H18.3707C17.0431 62.4374 15.9923 61.3441 15.9923 60.0093C15.9923 58.6675 17.0431 57.5812 18.3707 57.5244L21.4236 57.5173ZM26.1129 60.7761L26.5176 60.3998L28.7966 62.4942H26.3472L24.4871 60.7903L27.3696 58.0711H26.5673L24.4871 60.0803V58.0711H23.9333V61.9404H24.9131L25.5237 62.4942H23.3796V57.5173H25.0409V58.7385L26.3472 57.5173H28.7682L25.2965 60.7832L26.5602 61.9404H27.3767L26.1129 60.7761ZM36.1839 57.5173V59.1787H32.4139V59.7324H35.2112V60.2862H31.8601V58.6249H35.6301V58.0711H31.3064V61.9404H35.6301V61.3867H31.8601V60.8329H36.1839V62.4942H30.7526V57.5173H36.1839ZM43.5995 62.4942H41.6826L41.0365 61.3796H39.7941V62.4942H38.1398V59.7253L42.2009 59.7324C42.6623 59.7324 43.0315 59.3562 43.0315 58.9018C43.0315 58.4403 42.6623 58.0711 42.2009 58.0711H38.6936V58.6249H42.2009C42.3499 58.632 42.4635 58.7527 42.4635 58.9018C42.4635 59.0509 42.3499 59.1716 42.2009 59.1787H42.1938H42.1867H38.1398V57.5173H42.2009C42.9676 57.5173 43.5853 58.135 43.5853 58.9018C43.5853 59.6614 42.9676 60.2862 42.2009 60.2862L38.6936 60.2791V61.9404H39.2474V60.8258H41.356C41.5832 61.2376 41.9666 61.8694 42.0021 61.9404H42.641C42.5842 61.8623 42.2577 61.2802 41.995 60.8258H42.6339C42.8682 61.2305 43.1025 61.6494 43.2942 61.9617L43.5995 62.4942ZM55.527 62.4942H53.6101L52.964 61.3796H51.7215V62.4942H50.0673V59.7253L54.1283 59.7324C54.5898 59.7324 54.959 59.3562 54.959 58.9018C54.959 58.4403 54.5898 58.0711 54.1283 58.0711H50.6211V58.6249H54.1283C54.2774 58.632 54.391 58.7527 54.391 58.9018C54.391 59.0509 54.2774 59.1716 54.1283 59.1787H54.1212H54.1141H50.0673V57.5173H54.1283C54.8951 57.5173 55.5128 58.135 55.5128 58.9018C55.5128 59.6614 54.8951 60.2862 54.1283 60.2862L50.6211 60.2791V61.9404H51.1749V60.8258H53.2835C53.5107 61.2376 53.8941 61.8694 53.9296 61.9404H54.5685C54.5117 61.8623 54.1851 61.2802 53.9225 60.8258H54.5614C54.7957 61.2305 55.03 61.6494 55.2217 61.9617L55.527 62.4942ZM59.7549 57.2972C61.2458 57.2972 62.4598 58.5113 62.4598 60.0093C62.4598 61.5074 61.2458 62.7143 59.7549 62.7143C58.2568 62.7143 57.0428 61.5074 57.0428 60.0093C57.0428 58.5113 58.2568 57.2972 59.7549 57.2972ZM59.7549 62.1676C60.9476 62.1676 61.9132 61.2021 61.9132 60.0093C61.9132 58.8166 60.9476 57.8439 59.7549 57.8439C58.555 57.8439 57.5894 58.8166 57.5894 60.0093C57.5894 61.2021 58.555 62.1676 59.7549 62.1676ZM59.7549 58.3906C60.6423 58.3906 61.3665 59.1219 61.3665 60.0093C61.3665 60.8968 60.6423 61.621 59.7549 61.621C58.8674 61.621 58.1361 60.8968 58.1361 60.0093C58.1361 59.1219 58.8674 58.3906 59.7549 58.3906ZM59.7549 61.0743C60.3441 61.0743 60.8198 60.5986 60.8198 60.0093C60.8198 59.413 60.3441 58.9373 59.7549 58.9373C59.1585 58.9373 58.6828 59.413 58.6828 60.0093C58.6828 60.5986 59.1585 61.0743 59.7549 61.0743ZM66.7729 57.2972C68.2638 57.2972 69.4779 58.5113 69.4779 60.0093C69.4779 61.5074 68.2638 62.7143 66.7729 62.7143C65.2749 62.7143 64.0608 61.5074 64.0608 60.0093C64.0608 58.5113 65.2749 57.2972 66.7729 57.2972ZM66.7729 62.1676C67.9657 62.1676 68.9312 61.2021 68.9312 60.0093C68.9312 58.8166 67.9657 57.8439 66.7729 57.8439C65.5731 57.8439 64.6075 58.8166 64.6075 60.0093C64.6075 61.2021 65.5731 62.1676 66.7729 62.1676ZM66.7729 58.3906C67.6604 58.3906 68.3845 59.1219 68.3845 60.0093C68.3845 60.8968 67.6604 61.621 66.7729 61.621C65.8854 61.621 65.1542 60.8968 65.1542 60.0093C65.1542 59.1219 65.8854 58.3906 66.7729 58.3906ZM66.7729 61.0743C67.3622 61.0743 67.8379 60.5986 67.8379 60.0093C67.8379 59.413 67.3622 58.9373 66.7729 58.9373C66.1765 58.9373 65.7009 59.413 65.7009 60.0093C65.7009 60.5986 66.1765 61.0743 66.7729 61.0743ZM74.4867 60.3359L76.0771 57.5173H77.8378V62.4942H76.1765V60.6341L75.1186 62.4942H73.8478L72.2361 59.6685V58.6249L74.1743 61.9404H74.7991L76.7302 58.6249V61.9404H77.284V58.0711H76.3965L74.4725 61.3938L72.5769 58.0711H71.6894V61.9404H72.2361V60.8968L72.7899 61.8481V62.4942H71.1357V57.5173H72.8964L74.4867 60.3359Z" fill="#356B6B"/>
</svg>
