<svg width="25" height="25" viewBox="0 0 25 25" fill="none" xmlns="http://www.w3.org/2000/svg">
<path fill-rule="evenodd" clip-rule="evenodd" d="M12.0318 24.7161C13.6087 24.7161 15.1702 24.4088 16.6272 23.8119C18.0841 23.215 19.4079 22.34 20.5229 21.237C21.638 20.134 22.5226 18.8245 23.126 17.3834C23.7295 15.9423 24.0401 14.3977 24.0401 12.8378C24.0401 11.2779 23.7295 9.73329 23.126 8.29215C22.5226 6.851 21.638 5.54155 20.5229 4.43855C19.4079 3.33554 18.0841 2.46059 16.6272 1.86365C15.1702 1.26671 13.6087 0.959473 12.0318 0.959473C8.84696 0.959473 5.7926 2.21093 3.5406 4.43855C1.2886 6.66616 0.0234375 9.68745 0.0234375 12.8378C0.0234375 15.9881 1.2886 19.0094 3.5406 21.237C5.7926 23.4646 8.84696 24.7161 12.0318 24.7161ZM12.9751 17.7303C12.8512 17.8529 12.7041 17.9502 12.5422 18.0166C12.3804 18.083 12.2068 18.1172 12.0316 18.1173C11.8563 18.1173 11.6828 18.0833 11.5208 18.017C11.3589 17.9507 11.2117 17.8535 11.0878 17.731C10.9638 17.6084 10.8655 17.4629 10.7983 17.3028C10.7312 17.1427 10.6966 16.971 10.6966 16.7977C10.6964 16.4476 10.8369 16.1118 11.0871 15.8641L12.8123 14.1576H8.02899C7.67513 14.1576 7.33575 14.0185 7.08553 13.771C6.83531 13.5235 6.69473 13.1878 6.69473 12.8378C6.69473 12.4877 6.83531 12.152 7.08553 11.9045C7.33575 11.657 7.67513 11.518 8.02899 11.518H12.8136L11.0884 9.81145C10.8383 9.5638 10.6978 9.22798 10.6979 8.87787C10.698 8.52777 10.8388 8.19205 11.0891 7.94457C11.3395 7.6971 11.679 7.55814 12.0329 7.55826C12.3868 7.55839 12.7262 7.69758 12.9764 7.94523L16.9792 11.9047C17.2293 12.1522 17.3699 12.4878 17.3699 12.8378C17.3699 13.1877 17.2293 13.5234 16.9792 13.7709L12.9764 17.7303H12.9751Z" fill="#C09AF2"/>
</svg>
