<svg width="340" height="120" viewBox="0 0 340 120" fill="none" xmlns="http://www.w3.org/2000/svg">
<path d="M181.92 107C179.823 107 178.775 105.952 178.775 103.855C178.8 102.227 178.812 100.611 178.812 99.008C178.837 97.4047 178.849 95.789 178.849 94.161C178.849 92.533 178.837 90.9297 178.812 89.351C178.812 87.7477 178.8 86.132 178.775 84.504C178.775 82.4073 179.823 81.359 181.92 81.359H188.284C192.033 81.359 194.759 82.0003 196.461 83.283C198.163 84.541 199.014 86.5883 199.014 89.425C199.014 90.9297 198.73 92.2987 198.163 93.532C197.62 94.7407 196.831 95.7767 195.795 96.64C194.759 97.5033 193.501 98.1693 192.021 98.638C190.566 99.082 188.913 99.304 187.063 99.304H185.694C185.694 100.069 185.694 100.833 185.694 101.598C185.694 102.338 185.706 103.09 185.731 103.855C185.731 105.952 184.683 107 182.586 107H181.92ZM186.952 94.05C188.703 94.05 189.961 93.717 190.726 93.051C191.491 92.385 191.873 91.275 191.873 89.721C191.873 88.5617 191.528 87.7353 190.837 87.242C190.171 86.724 189.061 86.465 187.507 86.465H185.731C185.731 86.9583 185.719 87.464 185.694 87.982C185.694 88.4753 185.694 89.018 185.694 89.61C185.694 90.202 185.694 90.868 185.694 91.608C185.694 92.3233 185.694 93.1373 185.694 94.05H186.952ZM205.567 107C203.47 107 202.422 105.952 202.422 103.855C202.447 102.054 202.471 100.291 202.496 98.564C202.521 96.8373 202.533 95.049 202.533 93.199C202.533 91.571 202.521 89.9307 202.496 88.278C202.471 86.6253 202.447 84.985 202.422 83.357C202.422 81.2603 203.47 80.212 205.567 80.212H205.789C207.886 80.212 208.934 81.2603 208.934 83.357C208.934 84.985 208.934 86.6253 208.934 88.278C208.934 89.9307 208.922 91.571 208.897 93.199C208.872 95.049 208.86 96.8373 208.86 98.564C208.885 100.291 208.909 102.054 208.934 103.855C208.934 105.952 207.886 107 205.789 107H205.567ZM218.637 107.37C217.725 107.37 216.861 107.259 216.047 107.037C215.258 106.815 214.567 106.482 213.975 106.038C213.383 105.569 212.915 104.99 212.569 104.299C212.224 103.584 212.051 102.745 212.051 101.783C212.051 99.4643 213.026 97.7253 214.974 96.566C216.948 95.382 220.019 94.8517 224.187 94.975V93.717C224.187 92.3603 223.99 91.4353 223.595 90.942C223.225 90.4487 222.633 90.202 221.819 90.202C221.326 90.202 220.882 90.276 220.487 90.424C220.117 90.5473 219.821 90.7817 219.599 91.127C219.328 91.5217 219.106 91.8917 218.933 92.237C218.761 92.5577 218.563 92.829 218.341 93.051C218.144 93.273 217.91 93.4457 217.638 93.569C217.367 93.6923 217.009 93.754 216.565 93.754H216.195C215.159 93.754 214.321 93.4827 213.679 92.94C213.063 92.3727 212.902 91.571 213.198 90.535C213.618 89.0797 214.555 87.9943 216.01 87.279C217.49 86.5637 219.587 86.206 222.3 86.206C227.801 86.206 230.551 88.6727 230.551 93.606C230.551 95.8507 230.551 97.7993 230.551 99.452C230.576 101.08 230.613 102.523 230.662 103.781C230.712 104.817 230.49 105.619 229.996 106.186C229.503 106.729 228.751 107 227.739 107H227.406C225.532 107 224.52 106.704 224.372 106.112C224.323 105.964 224.286 105.816 224.261 105.668C224.237 105.52 224.212 105.372 224.187 105.224C223.447 105.939 222.596 106.482 221.634 106.852C220.672 107.197 219.673 107.37 218.637 107.37ZM220.598 103.189C221.437 103.189 222.152 103.029 222.744 102.708C223.336 102.363 223.842 101.882 224.261 101.265V97.935C223.423 97.9597 222.621 98.009 221.856 98.083C221.092 98.157 220.413 98.2927 219.821 98.49C219.254 98.6873 218.798 98.971 218.452 99.341C218.107 99.711 217.934 100.192 217.934 100.784C217.934 101.499 218.156 102.079 218.6 102.523C219.069 102.967 219.735 103.189 220.598 103.189ZM244.168 102.523C245.254 102.474 246.092 102.535 246.684 102.708C247.276 102.856 247.609 103.312 247.683 104.077C247.757 104.866 247.622 105.545 247.276 106.112C246.956 106.679 246.388 107.049 245.574 107.222C244.834 107.37 244.02 107.444 243.132 107.444C241.998 107.444 240.962 107.308 240.024 107.037C239.087 106.79 238.298 106.383 237.656 105.816C237.015 105.249 236.522 104.496 236.176 103.559C235.831 102.622 235.671 101.487 235.695 100.155C235.72 99.045 235.732 97.9103 235.732 96.751C235.732 95.567 235.732 94.383 235.732 93.199V91.275H235.695C233.599 91.275 232.55 90.4857 232.55 88.907C232.55 87.3283 233.081 86.539 234.141 86.539H235.695C235.695 86.2183 235.683 85.91 235.658 85.614C235.658 85.318 235.658 85.0097 235.658 84.689C235.658 82.8637 236.522 81.6797 238.248 81.137C239.284 80.7917 240.111 80.8163 240.727 81.211C241.369 81.6057 241.689 82.2963 241.689 83.283V86.539H244.279C246.376 86.539 247.424 87.316 247.424 88.87C247.424 90.424 246.475 91.201 244.575 91.201L241.689 91.238C241.689 91.5833 241.677 91.9163 241.652 92.237C241.652 92.533 241.652 92.8537 241.652 93.199C241.603 94.2597 241.578 95.3203 241.578 96.381C241.603 97.4417 241.615 98.453 241.615 99.415C241.615 100.5 241.813 101.302 242.207 101.82C242.627 102.313 243.28 102.548 244.168 102.523ZM265.21 83.357C265.136 84.1463 264.815 84.6027 264.248 84.726C263.705 84.8493 262.891 84.874 261.806 84.8C260.918 84.7507 260.19 84.985 259.623 85.503C259.056 85.9963 258.772 86.798 258.772 87.908V89.536H261.473C263.57 89.536 264.618 90.313 264.618 91.867C264.618 93.4457 263.644 94.235 261.695 94.235L258.772 94.272C258.772 94.568 258.772 94.864 258.772 95.16C258.797 95.456 258.809 95.752 258.809 96.048C258.809 97.3553 258.809 98.6627 258.809 99.97C258.834 101.253 258.846 102.548 258.846 103.855C258.846 105.952 257.859 107 255.886 107C254.924 107 254.184 106.741 253.666 106.223C253.148 105.68 252.889 104.891 252.889 103.855C252.889 102.548 252.877 101.253 252.852 99.97C252.852 98.6627 252.852 97.3553 252.852 96.048V94.309H252.556C250.459 94.309 249.411 93.5073 249.411 91.904C249.411 90.3253 249.991 89.536 251.15 89.536H252.852C252.827 89.1907 252.815 88.8453 252.815 88.5C252.815 88.1547 252.815 87.8217 252.815 87.501C252.79 86.095 252.963 84.911 253.333 83.949C253.703 82.987 254.246 82.21 254.961 81.618C255.701 81.0013 256.577 80.5573 257.588 80.286C258.624 80.0147 259.771 79.879 261.029 79.879C261.72 79.879 262.312 79.9283 262.805 80.027C263.742 80.175 264.396 80.5573 264.766 81.174C265.136 81.7907 265.284 82.5183 265.21 83.357ZM276.559 107.444C270.219 107.444 267.05 103.904 267.05 96.825C267.05 89.7457 270.219 86.206 276.559 86.206C282.799 86.206 285.92 89.7457 285.92 96.825C285.92 103.904 282.799 107.444 276.559 107.444ZM276.559 102.93C277.003 102.93 277.41 102.844 277.78 102.671C278.15 102.498 278.47 102.19 278.742 101.746C279.013 101.277 279.223 100.648 279.371 99.859C279.519 99.0697 279.593 98.0583 279.593 96.825C279.593 95.6903 279.531 94.7407 279.408 93.976C279.309 93.1867 279.136 92.5577 278.89 92.089C278.643 91.5957 278.322 91.2503 277.928 91.053C277.558 90.831 277.101 90.72 276.559 90.72C275.967 90.72 275.473 90.831 275.079 91.053C274.684 91.2503 274.351 91.5957 274.08 92.089C273.833 92.5577 273.648 93.1867 273.525 93.976C273.426 94.7407 273.377 95.6903 273.377 96.825C273.377 98.0583 273.451 99.0697 273.599 99.859C273.771 100.648 273.993 101.277 274.265 101.746C274.536 102.19 274.869 102.498 275.264 102.671C275.658 102.844 276.09 102.93 276.559 102.93ZM301.093 86.243C301.438 86.317 301.796 86.502 302.166 86.798C302.536 87.094 302.844 87.5997 303.091 88.315C303.214 88.7343 303.276 89.166 303.276 89.61C303.276 90.054 303.214 90.4857 303.091 90.905C302.844 91.867 302.474 92.5083 301.981 92.829C301.487 93.125 301.006 93.1867 300.538 93.014C300.069 92.866 299.576 92.792 299.058 92.792C297.454 92.792 296.307 93.8157 295.617 95.863V96.751C295.617 97.1703 295.604 97.5897 295.58 98.009C295.58 98.4037 295.58 98.7983 295.58 99.193C295.58 99.9577 295.58 100.722 295.58 101.487C295.604 102.227 295.629 102.992 295.654 103.781C295.703 104.817 295.456 105.619 294.914 106.186C294.396 106.729 293.619 107 292.583 107H292.472C290.375 107 289.327 105.952 289.327 103.855C289.351 102.671 289.364 101.499 289.364 100.34C289.388 99.1807 289.401 97.9843 289.401 96.751C289.401 95.5177 289.388 94.3213 289.364 93.162C289.364 92.0027 289.351 90.831 289.327 89.647C289.327 88.611 289.586 87.834 290.104 87.316C290.622 86.7733 291.362 86.502 292.324 86.502C293.286 86.502 294.026 86.6993 294.544 87.094C295.062 87.4887 295.321 88.0807 295.321 88.87V91.275L295.432 91.349C295.728 89.8197 296.283 88.574 297.097 87.612C297.911 86.65 298.934 86.169 300.168 86.169C300.365 86.169 300.538 86.1813 300.686 86.206C300.834 86.206 300.969 86.2183 301.093 86.243ZM335.449 103.818C335.449 105.939 334.401 107 332.304 107H332.193C330.096 107 329.048 105.939 329.048 103.818C329.073 102.116 329.085 100.5 329.085 98.971C329.11 97.417 329.122 95.9987 329.122 94.716C329.122 93.5073 328.912 92.6687 328.493 92.2C328.074 91.7313 327.445 91.5093 326.606 91.534C325.274 91.5587 324.287 92.1877 323.646 93.421V94.79C323.597 96.0973 323.584 97.5157 323.609 99.045C323.634 100.55 323.658 102.141 323.683 103.818C323.683 105.939 322.635 107 320.538 107H320.427C318.33 107 317.282 105.939 317.282 103.818C317.307 102.116 317.319 100.5 317.319 98.971C317.344 97.417 317.356 95.9987 317.356 94.716C317.356 93.5073 317.146 92.6687 316.727 92.2C316.308 91.7313 315.679 91.5093 314.84 91.534C313.434 91.5833 312.398 92.2987 311.732 93.68V96.751C311.707 97.9843 311.695 99.1807 311.695 100.34C311.72 101.499 311.732 102.671 311.732 103.855C311.757 104.891 311.498 105.68 310.955 106.223C310.437 106.741 309.66 107 308.624 107H308.365C307.329 107 306.54 106.741 305.997 106.223C305.479 105.68 305.232 104.891 305.257 103.855C305.282 102.671 305.294 101.499 305.294 100.34C305.319 99.1807 305.331 97.9843 305.331 96.751C305.331 95.5177 305.319 94.3213 305.294 93.162C305.294 92.0027 305.282 90.831 305.257 89.647C305.232 88.611 305.479 87.834 305.997 87.316C306.54 86.7733 307.329 86.502 308.365 86.502C309.401 86.502 310.19 86.65 310.733 86.946C311.276 87.242 311.547 87.6737 311.547 88.241C311.522 88.4877 311.51 88.759 311.51 89.055C311.51 89.351 311.498 89.6717 311.473 90.017H311.51C312.891 87.4763 315.037 86.206 317.948 86.206C319.28 86.206 320.378 86.5143 321.241 87.131C322.104 87.723 322.746 88.685 323.165 90.017H323.276C324.657 87.4763 326.803 86.206 329.714 86.206C331.663 86.206 333.118 86.872 334.08 88.204C335.042 89.536 335.486 91.7313 335.412 94.79C335.363 96.0973 335.35 97.5157 335.375 99.045C335.4 100.55 335.424 102.141 335.449 103.818Z" fill="#000"/>
<path d="M338 117.5L176 117.5" stroke="#000" stroke-width="4" stroke-linecap="round"/>
<path d="M9.92 58C8.184 58 6.86133 57.566 5.952 56.698C5.084 55.7887 4.67067 54.466 4.712 52.73C4.712 50.002 4.712 47.2947 4.712 44.608C4.75333 41.9213 4.774 39.214 4.774 36.486V32.456L4.712 24.334V20.304C4.67067 18.568 5.084 17.266 5.952 16.398C6.86133 15.4887 8.184 15.034 9.92 15.034H11.036C12.772 15.034 14.074 15.4887 14.942 16.398C15.8513 17.266 16.2853 18.568 16.244 20.304V33.262L17.732 32.27C18.5587 31.7327 19.3233 31.03 20.026 30.162C20.7287 29.294 21.3693 28.3227 21.948 27.248C22.5267 26.1733 23.0433 25.016 23.498 23.776C23.9527 22.4947 24.3453 21.1927 24.676 19.87C25.048 18.258 25.668 17.0593 26.536 16.274C27.4453 15.4473 28.706 15.034 30.318 15.034H31.496C33.3973 15.034 34.7613 15.5713 35.588 16.646C36.456 17.7207 36.5593 19.188 35.898 21.048C34.7407 24.2307 33.418 27.062 31.93 29.542C30.442 32.022 28.8507 33.7373 27.156 34.688V34.998C28.0653 35.122 28.8713 35.3493 29.574 35.68C30.318 35.9693 30.9793 36.4033 31.558 36.982C32.178 37.5193 32.736 38.222 33.232 39.09C33.7693 39.958 34.286 41.012 34.782 42.252C34.9473 42.7067 35.1127 43.2027 35.278 43.74C35.4433 44.2773 35.6293 44.918 35.836 45.662C36.0427 46.406 36.27 47.274 36.518 48.266C36.766 49.258 37.0553 50.436 37.386 51.8C37.8407 53.784 37.6547 55.3133 36.828 56.388C36.0427 57.4627 34.72 58 32.86 58H31.248C28.0653 58 26.164 56.2847 25.544 52.854C25.0893 50.374 24.6347 48.3487 24.18 46.778C23.7253 45.166 23.25 43.9053 22.754 42.996C22.258 42.0453 21.7 41.384 21.08 41.012C20.5013 40.64 19.8193 40.454 19.034 40.454C18.4553 40.454 17.98 40.4747 17.608 40.516C17.2773 40.516 16.8227 40.5987 16.244 40.764V52.73C16.2853 54.466 15.8513 55.7887 14.942 56.698C14.074 57.566 12.772 58 11.036 58H9.92ZM58.3086 58.744C47.6859 58.744 42.3746 52.8127 42.3746 40.95C42.3746 29.0873 47.6859 23.156 58.3086 23.156C68.7659 23.156 73.9946 29.0873 73.9946 40.95C73.9946 52.8127 68.7659 58.744 58.3086 58.744ZM58.3086 51.18C59.0526 51.18 59.7346 51.0353 60.3546 50.746C60.9746 50.4567 61.5119 49.94 61.9666 49.196C62.4212 48.4107 62.7726 47.3567 63.0206 46.034C63.2686 44.7113 63.3926 43.0167 63.3926 40.95C63.3926 39.0487 63.2892 37.4573 63.0826 36.176C62.9172 34.8533 62.6279 33.7993 62.2146 33.014C61.8012 32.1873 61.2639 31.6087 60.6026 31.278C59.9826 30.906 59.2179 30.72 58.3086 30.72C57.3166 30.72 56.4899 30.906 55.8286 31.278C55.1672 31.6087 54.6092 32.1873 54.1546 33.014C53.7412 33.7993 53.4312 34.8533 53.2246 36.176C53.0592 37.4573 52.9766 39.0487 52.9766 40.95C52.9766 43.0167 53.1006 44.7113 53.3486 46.034C53.6379 47.3567 54.0099 48.4107 54.4646 49.196C54.9192 49.94 55.4772 50.4567 56.1386 50.746C56.7999 51.0353 57.5232 51.18 58.3086 51.18ZM94.4565 58.62C88.8765 58.62 84.8052 57.1113 82.2425 54.094C79.7212 51.0767 78.4605 46.4887 78.4605 40.33C78.4605 28.8807 83.7925 23.156 94.4565 23.156C97.3498 23.156 99.8092 23.6313 101.835 24.582C103.86 25.4913 105.472 26.7933 106.671 28.488C107.911 30.1827 108.737 32.2287 109.151 34.626C109.605 36.982 109.688 39.6067 109.399 42.5C109.316 43.1613 109.006 43.492 108.469 43.492H88.6905C88.7732 45.104 88.9592 46.4267 89.2485 47.46C89.5792 48.452 89.9925 49.258 90.4885 49.878C90.9845 50.4567 91.5838 50.87 92.2865 51.118C92.9892 51.3247 93.7332 51.428 94.5185 51.428C96.1305 51.428 97.4119 51.1593 98.3625 50.622C98.9412 50.25 99.4165 49.878 99.7885 49.506C100.161 49.0927 100.512 48.7413 100.843 48.452C101.215 48.1213 101.607 47.8527 102.021 47.646C102.434 47.4393 102.971 47.336 103.633 47.336C105.245 47.336 106.526 47.7493 107.477 48.576C108.427 49.3613 108.675 50.4567 108.221 51.862C106.774 56.3673 102.186 58.62 94.4565 58.62ZM98.9205 37.664C99.0032 35.184 98.6519 33.324 97.8665 32.084C97.0812 30.844 95.7792 30.224 93.9605 30.224C92.3485 30.224 91.0465 30.844 90.0545 32.084C89.1038 33.2827 88.6698 35.1427 88.7525 37.664H98.9205ZM135.384 23.218C135.963 23.342 136.562 23.652 137.182 24.148C137.802 24.644 138.319 25.4913 138.732 26.69C138.939 27.3927 139.042 28.116 139.042 28.86C139.042 29.604 138.939 30.3273 138.732 31.03C138.319 32.642 137.699 33.7167 136.872 34.254C136.046 34.75 135.24 34.8533 134.454 34.564C133.669 34.316 132.842 34.192 131.974 34.192C129.288 34.192 127.366 35.9073 126.208 39.338V40.826C126.208 41.5287 126.188 42.2313 126.146 42.934C126.146 43.5953 126.146 44.2567 126.146 44.918C126.146 46.1993 126.146 47.4807 126.146 48.762C126.188 50.002 126.229 51.2833 126.27 52.606C126.353 54.342 125.94 55.6853 125.03 56.636C124.162 57.5453 122.86 58 121.124 58H120.938C117.425 58 115.668 56.2433 115.668 52.73C115.71 50.746 115.73 48.7827 115.73 46.84C115.772 44.8973 115.792 42.8927 115.792 40.826C115.792 38.7593 115.772 36.7547 115.73 34.812C115.73 32.8693 115.71 30.906 115.668 28.922C115.668 27.186 116.102 25.884 116.97 25.016C117.838 24.1067 119.078 23.652 120.69 23.652C122.302 23.652 123.542 23.9827 124.41 24.644C125.278 25.3053 125.712 26.2973 125.712 27.62V31.65L125.898 31.774C126.394 29.2113 127.324 27.124 128.688 25.512C130.052 23.9 131.768 23.094 133.834 23.094C134.165 23.094 134.454 23.1147 134.702 23.156C134.95 23.156 135.178 23.1767 135.384 23.218ZM147.88 19.374C145.566 19.374 143.912 18.9607 142.92 18.134C141.928 17.3073 141.432 15.964 141.432 14.104C141.432 12.244 141.928 10.9007 142.92 10.074C143.912 9.24733 145.566 8.834 147.88 8.834C150.195 8.834 151.848 9.24733 152.84 10.074C153.832 10.9007 154.328 12.244 154.328 14.104C154.328 15.964 153.832 17.3073 152.84 18.134C151.848 18.9607 150.195 19.374 147.88 19.374ZM148.066 58C144.553 58 142.796 56.2433 142.796 52.73V47.46C142.755 42.872 142.734 39.1313 142.734 36.238C142.734 33.3033 142.714 30.8647 142.672 28.922C142.672 27.2273 143.106 25.946 143.974 25.078C144.884 24.1687 146.206 23.714 147.942 23.714H148.004C151.518 23.714 153.274 25.4707 153.274 28.984C153.274 31.1747 153.274 33.448 153.274 35.804C153.274 38.1187 153.254 40.2267 153.212 42.128C153.171 43.9467 153.15 45.724 153.15 47.46C153.192 49.196 153.212 50.9527 153.212 52.73C153.295 56.2433 151.58 58 148.066 58ZM174.923 58.62C169.343 58.62 165.272 57.1113 162.709 54.094C160.188 51.0767 158.927 46.4887 158.927 40.33C158.927 28.8807 164.259 23.156 174.923 23.156C177.817 23.156 180.276 23.6313 182.301 24.582C184.327 25.4913 185.939 26.7933 187.137 28.488C188.377 30.1827 189.204 32.2287 189.617 34.626C190.072 36.982 190.155 39.6067 189.865 42.5C189.783 43.1613 189.473 43.492 188.935 43.492H169.157C169.24 45.104 169.426 46.4267 169.715 47.46C170.046 48.452 170.459 49.258 170.955 49.878C171.451 50.4567 172.051 50.87 172.753 51.118C173.456 51.3247 174.2 51.428 174.985 51.428C176.597 51.428 177.879 51.1593 178.829 50.622C179.408 50.25 179.883 49.878 180.255 49.506C180.627 49.0927 180.979 48.7413 181.309 48.452C181.681 48.1213 182.074 47.8527 182.487 47.646C182.901 47.4393 183.438 47.336 184.099 47.336C185.711 47.336 186.993 47.7493 187.943 48.576C188.894 49.3613 189.142 50.4567 188.687 51.862C187.241 56.3673 182.653 58.62 174.923 58.62ZM179.387 37.664C179.47 35.184 179.119 33.324 178.333 32.084C177.548 30.844 176.246 30.224 174.427 30.224C172.815 30.224 171.513 30.844 170.521 32.084C169.571 33.2827 169.137 35.1427 169.219 37.664H179.387ZM215.851 23.218C216.43 23.342 217.029 23.652 217.649 24.148C218.269 24.644 218.786 25.4913 219.199 26.69C219.406 27.3927 219.509 28.116 219.509 28.86C219.509 29.604 219.406 30.3273 219.199 31.03C218.786 32.642 218.166 33.7167 217.339 34.254C216.512 34.75 215.706 34.8533 214.921 34.564C214.136 34.316 213.309 34.192 212.441 34.192C209.754 34.192 207.832 35.9073 206.675 39.338V40.826C206.675 41.5287 206.654 42.2313 206.613 42.934C206.613 43.5953 206.613 44.2567 206.613 44.918C206.613 46.1993 206.613 47.4807 206.613 48.762C206.654 50.002 206.696 51.2833 206.737 52.606C206.82 54.342 206.406 55.6853 205.497 56.636C204.629 57.5453 203.327 58 201.591 58H201.405C197.892 58 196.135 56.2433 196.135 52.73C196.176 50.746 196.197 48.7827 196.197 46.84C196.238 44.8973 196.259 42.8927 196.259 40.826C196.259 38.7593 196.238 36.7547 196.197 34.812C196.197 32.8693 196.176 30.906 196.135 28.922C196.135 27.186 196.569 25.884 197.437 25.016C198.305 24.1067 199.545 23.652 201.157 23.652C202.769 23.652 204.009 23.9827 204.877 24.644C205.745 25.3053 206.179 26.2973 206.179 27.62V31.65L206.365 31.774C206.861 29.2113 207.791 27.124 209.155 25.512C210.519 23.9 212.234 23.094 214.301 23.094C214.632 23.094 214.921 23.1147 215.169 23.156C215.417 23.156 215.644 23.1767 215.851 23.218Z" fill="black"/>
<ellipse cx="148.5" cy="12" rx="10.5" ry="10" fill="#85E211"/>
<path d="M254.875 37.3219C254.875 36.51 254.217 35.8512 253.404 35.8512H237.752C236.938 35.8512 236.28 36.51 236.28 37.3219C236.28 38.1333 236.938 38.7921 237.752 38.7921H253.404C254.217 38.7921 254.875 38.1333 254.875 37.3219Z" fill="black"/>
<path d="M253.404 12.5792H237.752C236.938 12.5792 236.28 13.2374 236.28 14.0493C236.28 14.8613 236.938 15.5201 237.752 15.5201H253.404C254.217 15.5201 254.875 14.8613 254.875 14.0493C254.875 13.2374 254.217 12.5792 253.404 12.5792Z" fill="black"/>
<mask id="mask0_392_916" style="mask-type:luminance" maskUnits="userSpaceOnUse" x="226" y="24" width="24" height="4">
<path d="M226.631 24.1057H249.018V27.2817H226.631V24.1057Z" fill="white"/>
</mask>
<g mask="url(#mask0_392_916)">
<path d="M228.102 27.1557H247.481C248.293 27.1557 248.951 26.497 248.951 25.685C248.951 24.873 248.293 24.2148 247.481 24.2148H228.102C227.289 24.2148 226.631 24.873 226.631 25.685C226.631 26.497 227.289 27.1557 228.102 27.1557Z" fill="black"/>
</g>
<path d="M322.951 60.4452C321.296 60.4452 319.953 61.7863 319.953 63.4419C319.953 65.0969 321.296 66.438 322.951 66.438C324.608 66.438 325.951 65.0969 325.951 63.4419C325.951 61.7863 324.608 60.4452 322.951 60.4452Z" fill="black"/>
<path d="M266.972 60.4452C265.316 60.4452 263.974 61.7863 263.974 63.4419C263.974 65.0969 265.316 66.438 266.972 66.438C268.629 66.438 269.971 65.0969 269.971 63.4419C269.971 61.7863 268.629 60.4452 266.972 60.4452Z" fill="black"/>
<path d="M329.106 42.9233H312.457V26.2855H318.214L329.106 37.1712V42.9233ZM309.513 23.3446V45.8636H332.049V35.9536L319.431 23.3446H309.513Z" fill="black"/>
<mask id="mask1_392_916" style="mask-type:luminance" maskUnits="userSpaceOnUse" x="250" y="0" width="90" height="74">
<path d="M250.448 0H339.417V73.9021H250.448V0Z" fill="white"/>
</mask>
<g mask="url(#mask1_392_916)">
<path d="M336.475 60.5494C336.475 61.3111 335.854 61.9308 335.093 61.9308H333.298C332.561 56.8784 328.21 52.9816 322.951 52.9816C317.694 52.9816 313.342 56.8784 312.605 61.9308H277.318C276.581 56.8784 272.23 52.9816 266.972 52.9816C261.715 52.9816 257.365 56.8765 256.627 61.9283C254.873 61.9128 253.448 60.4842 253.448 58.7275V50.8868H305.031V18.9218H316.075C319.472 18.9218 322.664 20.2437 325.067 22.6437L332.751 30.3212C335.152 32.7212 336.475 35.912 336.475 39.3063V60.5494ZM322.951 70.9618C318.802 70.9618 315.426 67.5886 315.426 63.4418C315.426 59.2951 318.802 55.9219 322.951 55.9219C327.102 55.9219 330.477 59.2951 330.477 63.4418C330.477 67.5886 327.102 70.9618 322.951 70.9618ZM266.972 70.9618C262.822 70.9618 259.447 67.5886 259.447 63.4418C259.447 59.2951 262.822 55.9219 266.972 55.9219C271.121 55.9219 274.497 59.2951 274.497 63.4418C274.497 67.5886 271.121 70.9618 266.972 70.9618ZM327.148 20.565C324.191 17.6093 320.258 15.9822 316.075 15.9822H305.031V4.65045C305.031 2.08548 302.943 -0.000610352 300.376 -0.000610352H255.16C252.594 -0.000610352 250.506 2.08548 250.506 4.65045V8.75687C250.506 9.56886 251.164 10.2264 251.977 10.2264C252.79 10.2264 253.448 9.56886 253.448 8.75687V4.65045C253.448 3.70696 254.216 2.93964 255.16 2.93964H300.376C301.319 2.93964 302.089 3.70696 302.089 4.65045V47.9466H253.448V43.3309C253.448 42.5195 252.79 41.8608 251.977 41.8608C251.164 41.8608 250.506 42.5195 250.506 43.3309V58.7275C250.506 62.1014 253.243 64.845 256.614 64.8673C257.313 69.9606 261.685 73.9021 266.972 73.9021C272.259 73.9021 276.63 69.9631 277.331 64.8716H312.593C313.294 69.9631 317.666 73.9021 322.951 73.9021C328.238 73.9021 332.609 69.9631 333.311 64.8716H335.093C337.478 64.8716 339.417 62.9326 339.417 60.5494V39.3063C339.417 35.1267 337.788 31.1977 334.831 28.2419L327.148 20.565Z" fill="black"/>
</g>
</svg>
